<?xml version="1.0" encoding="UTF-8" standalone="no"?>
<!-- Created with Inkscape (http://www.inkscape.org/) -->

<svg
   xmlns:dc="http://purl.org/dc/elements/1.1/"
   xmlns:cc="http://creativecommons.org/ns#"
   xmlns:rdf="http://www.w3.org/1999/02/22-rdf-syntax-ns#"
   xmlns:svg="http://www.w3.org/2000/svg"
   xmlns="http://www.w3.org/2000/svg"
   xmlns:sodipodi="http://sodipodi.sourceforge.net/DTD/sodipodi-0.dtd"
   xmlns:inkscape="http://www.inkscape.org/namespaces/inkscape"
   width="144"
   height="150"
   viewBox="0 0 144 150"
   id="svg7445"
   version="1.1"
   inkscape:version="0.91 r13725"
   sodipodi:docname="cow-logo-vertical.svg">
  <defs
     id="defs7447" />
  <sodipodi:namedview
     id="base"
     pagecolor="#ffffff"
     bordercolor="#666666"
     borderopacity="1.0"
     inkscape:pageopacity="0.0"
     inkscape:pageshadow="2"
     inkscape:zoom="1.979899"
     inkscape:cx="54.139256"
     inkscape:cy="85.717637"
     inkscape:document-units="px"
     inkscape:current-layer="layer1"
     showgrid="false"
     units="px"
     inkscape:window-width="1280"
     inkscape:window-height="970"
     inkscape:window-x="0"
     inkscape:window-y="25"
     inkscape:window-maximized="1" />
  <metadata
     id="metadata7450">
    <rdf:RDF>
      <cc:Work
         rdf:about="">
        <dc:format>image/svg+xml</dc:format>
        <dc:type
           rdf:resource="http://purl.org/dc/dcmitype/StillImage" />
        <dc:title></dc:title>
      </cc:Work>
    </rdf:RDF>
  </metadata>
  <g
     inkscape:label="Capa 1"
     inkscape:groupmode="layer"
     id="layer1"
     transform="translate(0,-902.36216)">
    <g
       id="g5920"
       transform="matrix(0.39214525,0,0,0.37888233,-807.00492,937.95729)">
      <path
         d="m 2420.5892,-7.33256 c -20.6887,-21.11459 -46.4835,-32.27464 -74.6013,-32.27464 -3.2246,0 -6.3539,0.14513 -9.3687,0.40149 0.6239,-2.16104 1.1748,-4.40682 1.6314,-6.73311 2.7659,-14.05415 -0.4195,-28.74495 -8.3094,-38.338258 -5.1293,-6.236282 -11.8317,-9.670634 -18.8752,-9.670634 -4.4036,0 -19.1474,1.713998 -23.9727,23.770332 -1.2669,5.79348 -4.9089,10.55835 -8.9089,14.22682 -10.4366,-3.43012 -21.2608,-5.16424 -32.2959,-5.16424 -13.2628,0 -26.1432,2.47777 -38.4103,7.37612 -4.893,-3.85173 -9.9714,-9.38038 -11.5159,-16.4387 -4.8253,-22.056334 -19.5691,-23.770332 -23.9727,-23.770332 -7.0424,0 -13.7459,3.434352 -18.8741,9.670634 -7.891,9.593308 -11.0753,24.284108 -8.3105,38.338258 0.4587,2.32735 1.0053,4.57313 1.6261,6.73311 -3.0106,-0.25636 -6.1367,-0.40255 -9.3602,-0.40255 -28.1189,0 -53.9168,11.16111 -74.6056,32.2757 -4.233,4.31784 -5.6472,10.66429 -3.6483,16.37091 0.6568,1.87607 16.5923,45.46437 74.774,46.48557 -0.1113,2.25849 -0.1685,4.52229 -0.1685,6.78608 0,0.55403 0,1.11441 0.012,1.67904 -10.0318,13.2607 -15.2999,28.20469 -15.2999,43.57347 0,25.52988 14.1325,49.08199 39.7948,66.31837 23.7195,15.93128 54.9581,24.70466 87.9595,24.70466 33.0013,0 64.2399,-8.77338 87.9594,-24.70466 25.6602,-17.23638 39.7917,-40.78849 39.7917,-66.31837 0,-15.36878 -5.2649,-30.31277 -15.2968,-43.57347 0.011,-0.56463 0.011,-1.12501 0.011,-1.67904 0,-2.42587 -0.064,-4.85174 -0.1906,-7.27443 51.1021,-4.93013 65.456,-44.22178 66.081,-46.00146 1.9916,-5.70556 0.5827,-12.04989 -3.6547,-16.36667"
         style="fill:#aa5752;fill-opacity:1;fill-rule:nonzero;stroke:none;stroke-width:0.10593312;stroke-opacity:1"
         id="path4164-6"
         inkscape:connector-curvature="0" />
      <path
         d="m 2322.6604,-49.00665 c 4.5382,-23.06905 -14.7491,-41.978113 -20.0447,-17.77451 -3.0445,13.92173 -13.4673,23.33071 -21.7777,28.82016 10.2172,4.41847 19.5902,10.7162 27.7799,18.51393 4.9545,-6.09857 11.4079,-16.16857 14.0425,-29.55958"
         style="fill:#f2cc69;fill-opacity:1;fill-rule:nonzero;stroke:#b3b3b3;stroke-width:0.10593312"
         id="path4180-6"
         inkscape:connector-curvature="0" />
      <path
         d="m 2409.2438,3.7883 c -37.6698,-38.44313 -81.6088,-27.3318 -98.3452,-21.00018 14.5563,14.76284 25.0373,34.41555 29.3636,56.62337 55.2314,3.65152 68.9816,-35.62319 68.9816,-35.62319"
         style="fill:#393536;fill-opacity:1;fill-rule:nonzero;stroke:#b3b3b3;stroke-width:0.10593312"
         id="path4182-3"
         inkscape:connector-curvature="0" />
      <path
         d="m 2205.9782,-35.63894 c -8.5721,-4.93119 -22.0086,-15.00861 -25.5383,-31.14222 -5.2946,-24.203603 -24.5818,-5.29454 -20.0436,17.77451 3.4852,17.71838 13.6569,29.62844 18.1919,34.20369 7.9344,-8.588 17.1855,-15.6728 27.39,-20.83598"
         style="fill:#f2cc69;fill-opacity:1;fill-rule:nonzero;stroke:#b3b3b3;stroke-width:0.10593312"
         id="path4184-5"
         inkscape:connector-curvature="0" />
      <path
         d="m 2073.814,3.7883 c 0,0 15.2014,43.44106 77.8809,34.70157 4.1706,-20.53619 13.6209,-38.84037 26.6772,-53.05872 -6.8475,-3.33477 -60.0758,-27.03943 -104.5581,18.35715"
         style="fill:#393536;fill-opacity:1;fill-rule:nonzero;stroke:#b3b3b3;stroke-width:0.10593312"
         id="path4186-2"
         inkscape:connector-curvature="0" />
      <path
         d="m 2274.6303,21.33612 c -5.8475,0 -10.5891,-4.74156 -10.5891,-10.58907 0,-5.84857 4.7416,-10.58907 10.5891,-10.58907 5.8486,0 10.5891,4.7405 10.5891,10.58907 0,5.84751 -4.7405,10.58907 -10.5891,10.58907 z m -62.0228,0 c -5.8475,0 -10.589,-4.74156 -10.589,-10.58907 0,-5.84857 4.7415,-10.58907 10.589,-10.58907 5.8486,0 10.5902,4.7405 10.5902,10.58907 0,5.84751 -4.7416,10.58907 -10.5902,10.58907 z m 96.0104,-40.78319 c -8.1897,-7.79773 -17.5627,-14.09546 -27.7799,-18.51393 -10.838,-4.68754 -22.6231,-7.26383 -34.9495,-7.26383 -14.2331,0 -27.7449,3.43011 -39.9103,9.58589 -10.2045,5.16318 -19.4556,12.24798 -27.39,20.83598 l -0.2161,0.23411 c -13.0563,14.21835 -22.5066,32.52253 -26.6772,53.05872 -1.5561,7.66321 -2.3824,15.63361 -2.3824,23.82013 0,2.37925 0.077,4.73944 0.214,7.07951 4.7108,-5.3528 10.3793,-10.27975 16.8529,-14.6728 -0.1769,-1.01696 -0.2882,-2.05828 -0.2882,-3.12609 0,-10.02551 8.1272,-18.1527 18.1527,-18.1527 5.4598,0 10.3434,2.42164 13.6718,6.23629 14.5382,-4.64305 30.8021,-7.24477 47.9728,-7.24477 18.193,0 35.3701,2.91952 50.5545,8.09541 3.3199,-4.303 8.5117,-7.08693 14.3677,-7.08693 10.0255,0 18.1527,8.12719 18.1527,18.1527 0,1.77756 -0.2669,3.4905 -0.7426,5.1134 5.3083,3.87503 10.016,8.12612 14.0298,12.68549 0.1367,-2.34113 0.214,-4.70026 0.214,-7.07951 0,-7.85918 -0.7649,-15.51815 -2.2024,-22.89851 -4.3263,-22.20782 -14.8073,-41.86053 -29.3636,-56.62337 -0.7489,-0.75954 -1.5116,-1.50213 -2.2807,-2.23519"
         style="fill:#fef0f3;fill-opacity:1;fill-rule:nonzero;stroke:#b3b3b3;stroke-width:0.10593312"
         id="path4220-3"
         inkscape:connector-curvature="0" />
      <path
         d="m 2184.2439,41.37973 c 5.6399,0 10.2109,4.57207 10.2109,10.21089 0,5.63988 -4.571,10.2109 -10.2109,10.2109 -5.6388,0 -10.2108,-4.57102 -10.2108,-10.2109 0,-5.63882 4.572,-10.21089 10.2108,-10.21089 z m 126.5668,0 c 5.6388,0 10.2109,4.57207 10.2109,10.21089 0,5.63988 -4.5721,10.2109 -10.2109,10.2109 -5.6399,0 -10.2119,-4.57102 -10.2119,-10.2109 0,-5.63882 4.572,-10.21089 10.2119,-10.21089 z m 17.4101,15.32429 c 0.4757,-1.6229 0.7426,-3.33584 0.7426,-5.1134 0,-10.02551 -8.1272,-18.1527 -18.1527,-18.1527 -5.856,0 -11.0478,2.78393 -14.3677,7.08693 -15.1844,-5.17589 -32.3615,-8.09541 -50.5545,-8.09541 -17.1707,0 -33.4346,2.60172 -47.9728,7.24477 -3.3284,-3.81465 -8.212,-6.23629 -13.6718,-6.23629 -10.0255,0 -18.1527,8.12719 -18.1527,18.1527 0,1.06781 0.1113,2.10913 0.2882,3.12609 -6.4736,4.39305 -12.1421,9.32 -16.8529,14.6728 -9.8454,11.18759 -15.5023,24.23538 -15.5023,38.173 0,41.49506 50.0831,75.13306 111.8643,75.13306 61.7813,0 111.8612,-33.638 111.8612,-75.13306 0,-13.93762 -5.6568,-26.98541 -15.4991,-38.173 -4.0138,-4.55937 -8.7215,-8.81046 -14.0298,-12.68549"
         style="fill:#f79690;fill-opacity:1;fill-rule:nonzero;stroke:#b3b3b3;stroke-width:0.10593312"
         id="path4222-7"
         inkscape:connector-curvature="0" />
      <path
         d="m 2212.6075,0.15798 c -5.8475,0 -10.589,4.7405 -10.589,10.58907 0,5.84751 4.7415,10.58907 10.589,10.58907 5.8486,0 10.5902,-4.74156 10.5902,-10.58907 0,-5.84857 -4.7416,-10.58907 -10.5902,-10.58907"
         style="fill:#393536;fill-opacity:1;fill-rule:nonzero;stroke:#b3b3b3;stroke-width:0.10593312"
         id="path4224-2"
         inkscape:connector-curvature="0" />
      <path
         d="m 2285.2194,10.74705 c 0,-5.84857 -4.7405,-10.58907 -10.5891,-10.58907 -5.8475,0 -10.5891,4.7405 -10.5891,10.58907 0,5.84751 4.7416,10.58907 10.5891,10.58907 5.8486,0 10.5891,-4.74156 10.5891,-10.58907"
         style="fill:#393536;fill-opacity:1;fill-rule:nonzero;stroke:#b3b3b3;stroke-width:0.10593312"
         id="path4226-6"
         inkscape:connector-curvature="0" />
      <path
         d="m 2184.2439,61.80152 c 5.6399,0 10.2109,-4.57102 10.2109,-10.2109 0,-5.63882 -4.571,-10.21089 -10.2109,-10.21089 -5.6388,0 -10.2108,4.57207 -10.2108,10.21089 0,5.63988 4.572,10.2109 10.2108,10.2109"
         style="fill:#393536;fill-opacity:1;fill-rule:nonzero;stroke:#b3b3b3;stroke-width:0.10593312"
         id="path4262-5"
         inkscape:connector-curvature="0" />
      <path
         d="m 2300.5988,51.59062 c 0,5.63988 4.572,10.2109 10.2119,10.2109 5.6388,0 10.2109,-4.57102 10.2109,-10.2109 0,-5.63882 -4.5721,-10.21089 -10.2109,-10.21089 -5.6399,0 -10.2119,4.57207 -10.2119,10.21089"
         style="fill:#393536;fill-opacity:1;fill-rule:nonzero;stroke:#b3b3b3;stroke-width:0.10593312"
         id="path4264-6"
         inkscape:connector-curvature="0" />
      <g
         transform="matrix(0.56816398,0,0,0.56816398,1924.9324,-33.64101)"
         id="g5819">
        <text
           xml:space="preserve"
           style="font-style:normal;font-variant:normal;font-weight:normal;font-stretch:normal;font-size:236.42759705px;line-height:125%;font-family:Ubuntu;-inkscape-font-specification:Ubuntu;letter-spacing:0px;word-spacing:0px;fill:#ffffff;fill-opacity:1;stroke:#aa5752;stroke-width:32.79987717;stroke-linecap:butt;stroke-linejoin:miter;stroke-miterlimit:4;stroke-dasharray:none;stroke-opacity:1"
           x="284.90277"
           y="630.43994"
           id="text5215-3-8"
           sodipodi:linespacing="125%"
           transform="matrix(0.98008871,-0.19856012,0.19856012,0.98008871,0,0)"><tspan
             sodipodi:role="line"
             id="tspan5217-6-0"
             x="284.90277"
             y="630.43994"
             style="font-style:normal;font-variant:normal;font-weight:normal;font-stretch:normal;font-family:'Variane Script';-inkscape-font-specification:'Variane Script';fill:#ffffff;stroke:#aa5752;stroke-width:32.79987717;stroke-miterlimit:4;stroke-dasharray:none;stroke-opacity:1">COW</tspan></text>
      </g>
      <text
         transform="matrix(0.98008871,-0.19856012,0.19856012,0.98008871,0,0)"
         sodipodi:linespacing="125%"
         id="text5215-3"
         y="707.43689"
         x="2055.1558"
         style="font-style:normal;font-variant:normal;font-weight:normal;font-stretch:normal;font-size:134.32965088px;line-height:125%;font-family:Ubuntu;-inkscape-font-specification:Ubuntu;letter-spacing:0px;word-spacing:0px;fill:#fef0f3;fill-opacity:1;stroke:none;stroke-width:1px;stroke-linecap:butt;stroke-linejoin:miter;stroke-opacity:1"
         xml:space="preserve"><tspan
           style="font-style:normal;font-variant:normal;font-weight:normal;font-stretch:normal;font-family:'Variane Script';-inkscape-font-specification:'Variane Script';fill:#fef0f3;fill-opacity:1"
           y="707.43689"
           x="2055.1558"
           id="tspan5217-6"
           sodipodi:role="line">COW</tspan></text>
    </g>
  </g>
</svg>
