<?xml version="1.0" encoding="UTF-8" standalone="no"?>
<!-- Created with Inkscape (http://www.inkscape.org/) -->

<svg
   xmlns:dc="http://purl.org/dc/elements/1.1/"
   xmlns:cc="http://creativecommons.org/ns#"
   xmlns:rdf="http://www.w3.org/1999/02/22-rdf-syntax-ns#"
   xmlns:svg="http://www.w3.org/2000/svg"
   xmlns="http://www.w3.org/2000/svg"
   xmlns:sodipodi="http://sodipodi.sourceforge.net/DTD/sodipodi-0.dtd"
   xmlns:inkscape="http://www.inkscape.org/namespaces/inkscape"
   width="48"
   height="48"
   id="svg5687"
   version="1.1"
   inkscape:version="0.91 r13725"
   viewBox="0 0 48 48"
   sodipodi:docname="cow-logo.svg">
  <defs
     id="defs5689" />
  <sodipodi:namedview
     id="base"
     pagecolor="#ffffff"
     bordercolor="#666666"
     borderopacity="1.0"
     inkscape:pageopacity="0.0"
     inkscape:pageshadow="2"
     inkscape:zoom="9.899495"
     inkscape:cx="23.052912"
     inkscape:cy="23.583483"
     inkscape:current-layer="g4393"
     showgrid="true"
     inkscape:grid-bbox="true"
     inkscape:document-units="px"
     inkscape:window-width="1280"
     inkscape:window-height="970"
     inkscape:window-x="0"
     inkscape:window-y="25"
     inkscape:window-maximized="1" />
  <metadata
     id="metadata5692">
    <rdf:RDF>
      <cc:Work
         rdf:about="">
        <dc:format>image/svg+xml</dc:format>
        <dc:type
           rdf:resource="http://purl.org/dc/dcmitype/StillImage" />
        <dc:title></dc:title>
      </cc:Work>
    </rdf:RDF>
  </metadata>
  <g
     id="layer1"
     inkscape:label="Layer 1"
     inkscape:groupmode="layer">
    <g
       id="g4146"
       transform="matrix(0.01291513,0,0,-0.01291513,-58.686737,121.507)">
      <g
         transform="translate(-4708.5714,1005.7143)"
         id="g4393">
        <path
           inkscape:connector-curvature="0"
           id="path4164"
           style="fill:#ffffff;fill-opacity:1;fill-rule:nonzero;stroke:none"
           d="m 12757.457,7158.16 c -195.3,199.32 -438.8,304.67 -704.23,304.67 -30.44,0 -59.98,-1.37 -88.44,-3.79 5.89,20.4 11.09,41.6 15.4,63.56 26.11,132.67 -3.96,271.35 -78.44,361.91 -48.42,58.87 -111.69,91.29 -178.18,91.29 -41.57,0 -180.75,-16.18 -226.3,-224.39 -11.96,-54.69 -46.34,-99.67 -84.1,-134.3 -98.52,32.38 -200.7,48.75 -304.87,48.75 -125.2,0 -246.79,-23.39 -362.59,-69.63 -46.19,36.36 -94.13,88.55 -108.71,155.18 -45.55,208.21 -184.73,224.39 -226.3,224.39 -66.48,0 -129.76,-32.42 -178.17,-91.29 -74.49,-90.56 -104.55,-229.24 -78.45,-361.91 4.33,-21.97 9.49,-43.17 15.35,-63.56 -28.42,2.42 -57.93,3.8 -88.36,3.8 -265.4399,0 -508.9699,-105.36 -704.2699,-304.68 -39.96,-40.76 -53.31,-100.67 -34.44,-154.54 6.2,-17.71 156.63,-429.18 705.8599,-438.82 -1.05,-21.32 -1.59,-42.69 -1.59,-64.06 0,-5.23 0.04,-10.52 0.11,-15.85 -94.6999,-125.18 -144.4299,-266.25 -144.4299,-411.33 0,-241 133.4099,-463.33 375.6599,-626.04 223.91,-150.39 518.8,-233.21 830.33,-233.21 311.53,0 606.42,82.82 830.33,233.21 242.23,162.71 375.63,385.04 375.63,626.04 0,145.08 -49.7,286.15 -144.4,411.33 0.1,5.33 0.1,10.62 0.1,15.85 0,22.9 -0.6,45.8 -1.8,68.67 482.4,46.54 617.9,417.45 623.8,434.25 18.8,53.86 5.5,113.75 -34.5,154.5" />
        <path
           inkscape:connector-curvature="0"
           id="path4180"
           style="fill:#f2cc69;fill-opacity:1;fill-rule:nonzero;stroke:none"
           d="m 11833.017,7551.56 c 42.84,217.77 -139.23,396.27 -189.22,167.79 -28.74,-131.42 -127.13,-220.24 -205.58,-272.06 96.45,-41.71 184.93,-101.16 262.24,-174.77 46.77,57.57 107.69,152.63 132.56,279.04" />
        <path
           inkscape:connector-curvature="0"
           id="path4182"
           style="fill:#393536;fill-opacity:1;fill-rule:nonzero;stroke:none"
           d="m 12650.357,7053.18 c -355.6,362.9 -770.38,258.01 -928.37,198.24 137.41,-139.36 236.35,-324.88 277.19,-534.52 521.38,-34.47 651.18,336.28 651.18,336.28" />
        <path
           inkscape:connector-curvature="0"
           id="path4184"
           style="fill:#f2cc69;fill-opacity:1;fill-rule:nonzero;stroke:none"
           d="m 10731.547,7425.37 c -80.92,46.55 -207.76,141.68 -241.08,293.98 -49.98,228.48 -232.05,49.98 -189.21,-167.79 32.9,-167.26 128.92,-279.69 171.73,-322.88 74.9,81.07 162.23,147.95 258.56,196.69" />
        <path
           inkscape:connector-curvature="0"
           id="path4186"
           style="fill:#393536;fill-opacity:1;fill-rule:nonzero;stroke:none"
           d="m 9483.9271,7053.18 c 0,0 143.5,-410.08 735.1899,-327.58 39.37,193.86 128.58,366.65 251.83,500.87 -64.64,31.48 -567.1099,255.25 -987.0199,-173.29" />
        <path
           inkscape:connector-curvature="0"
           id="path4220"
           style="fill:#fef0f3;fill-opacity:1;fill-rule:nonzero;stroke:none"
           d="m 11379.617,6887.53 c -55.2,0 -99.96,44.76 -99.96,99.96 0,55.21 44.76,99.96 99.96,99.96 55.21,0 99.96,-44.75 99.96,-99.96 0,-55.2 -44.75,-99.96 -99.96,-99.96 z m -585.49,0 c -55.2,0 -99.96,44.76 -99.96,99.96 0,55.21 44.76,99.96 99.96,99.96 55.21,0 99.97,-44.75 99.97,-99.96 0,-55.2 -44.76,-99.96 -99.97,-99.96 z m 906.33,384.99 c -77.31,73.61 -165.79,133.06 -262.24,174.77 -102.31,44.25 -213.56,68.57 -329.92,68.57 -134.36,0 -261.91,-32.38 -376.75,-90.49 -96.33,-48.74 -183.66,-115.62 -258.56,-196.69 l -2.04,-2.21 c -123.25,-134.22 -212.46,-307.01 -251.83,-500.87 -14.69,-72.34 -22.49,-147.58 -22.49,-224.86 0,-22.46 0.73,-44.74 2.02,-66.83 44.47,50.53 97.98,97.04 159.09,138.51 -1.67,9.6 -2.72,19.43 -2.72,29.51 0,94.64 76.72,171.36 171.36,171.36 51.54,0 97.64,-22.86 129.06,-58.87 137.24,43.83 290.77,68.39 452.86,68.39 171.74,0 333.89,-27.56 477.23,-76.42 31.34,40.62 80.35,66.9 135.63,66.9 94.64,0 171.36,-76.72 171.36,-171.36 0,-16.78 -2.52,-32.95 -7.01,-48.27 50.11,-36.58 94.55,-76.71 132.44,-119.75 1.29,22.1 2.02,44.37 2.02,66.83 0,74.19 -7.22,146.49 -20.79,216.16 -40.84,209.64 -139.78,395.16 -277.19,534.52 -7.07,7.17 -14.27,14.18 -21.53,21.1" />
        <path
           inkscape:connector-curvature="0"
           id="path4222"
           style="fill:#f79690;fill-opacity:1;fill-rule:nonzero;stroke:none"
           d="m 10526.377,6698.32 c 53.24,0 96.39,-43.16 96.39,-96.39 0,-53.24 -43.15,-96.39 -96.39,-96.39 -53.23,0 -96.39,43.15 -96.39,96.39 0,53.23 43.16,96.39 96.39,96.39 z m 1194.78,0 c 53.23,0 96.39,-43.16 96.39,-96.39 0,-53.24 -43.16,-96.39 -96.39,-96.39 -53.24,0 -96.4,43.15 -96.4,96.39 0,53.23 43.16,96.39 96.4,96.39 z m 164.35,-144.66 c 4.49,15.32 7.01,31.49 7.01,48.27 0,94.64 -76.72,171.36 -171.36,171.36 -55.28,0 -104.29,-26.28 -135.63,-66.9 -143.34,48.86 -305.49,76.42 -477.23,76.42 -162.09,0 -315.62,-24.56 -452.86,-68.39 -31.42,36.01 -77.52,58.87 -129.06,58.87 -94.64,0 -171.36,-76.72 -171.36,-171.36 0,-10.08 1.05,-19.91 2.72,-29.51 -61.11,-41.47 -114.62,-87.98 -159.09,-138.51 -92.94,-105.61 -146.34,-228.78 -146.34,-360.35 0,-391.71 472.78,-709.25 1055.99,-709.25 583.21,0 1055.96,317.54 1055.96,709.25 0,131.57 -53.4,254.74 -146.31,360.35 -37.89,43.04 -82.33,83.17 -132.44,119.75" />
        <path
           inkscape:connector-curvature="0"
           id="path4224"
           style="fill:#393536;fill-opacity:1;fill-rule:nonzero;stroke:none"
           d="m 10794.127,7087.45 c -55.2,0 -99.96,-44.75 -99.96,-99.96 0,-55.2 44.76,-99.96 99.96,-99.96 55.21,0 99.97,44.76 99.97,99.96 0,55.21 -44.76,99.96 -99.97,99.96" />
        <path
           inkscape:connector-curvature="0"
           id="path4226"
           style="fill:#393536;fill-opacity:1;fill-rule:nonzero;stroke:none"
           d="m 11479.577,6987.49 c 0,55.21 -44.75,99.96 -99.96,99.96 -55.2,0 -99.96,-44.75 -99.96,-99.96 0,-55.2 44.76,-99.96 99.96,-99.96 55.21,0 99.96,44.76 99.96,99.96" />
        <path
           inkscape:connector-curvature="0"
           id="path4262"
           style="fill:#393536;fill-opacity:1;fill-rule:nonzero;stroke:none"
           d="m 10526.377,6505.54 c 53.24,0 96.39,43.15 96.39,96.39 0,53.23 -43.15,96.39 -96.39,96.39 -53.23,0 -96.39,-43.16 -96.39,-96.39 0,-53.24 43.16,-96.39 96.39,-96.39" />
        <path
           inkscape:connector-curvature="0"
           id="path4264"
           style="fill:#393536;fill-opacity:1;fill-rule:nonzero;stroke:none"
           d="m 11624.757,6601.93 c 0,-53.24 43.16,-96.39 96.4,-96.39 53.23,0 96.39,43.15 96.39,96.39 0,53.23 -43.16,96.39 -96.39,96.39 -53.24,0 -96.4,-43.16 -96.4,-96.39" />
      </g>
    </g>
  </g>
</svg>
