<?xml version="1.0" encoding="UTF-8" standalone="no"?>
<!-- Created with Inkscape (http://www.inkscape.org/) -->

<svg
   xmlns:dc="http://purl.org/dc/elements/1.1/"
   xmlns:cc="http://creativecommons.org/ns#"
   xmlns:rdf="http://www.w3.org/1999/02/22-rdf-syntax-ns#"
   xmlns:svg="http://www.w3.org/2000/svg"
   xmlns="http://www.w3.org/2000/svg"
   xmlns:sodipodi="http://sodipodi.sourceforge.net/DTD/sodipodi-0.dtd"
   xmlns:inkscape="http://www.inkscape.org/namespaces/inkscape"
   width="144"
   height="150"
   viewBox="0 0 144 150"
   id="svg7445"
   version="1.1"
   inkscape:version="0.91 r13725"
   sodipodi:docname="cow-logo-vertical.svg">
  <defs
     id="defs7447" />
  <sodipodi:namedview
     id="base"
     pagecolor="#ffffff"
     bordercolor="#666666"
     borderopacity="1.0"
     inkscape:pageopacity="0.0"
     inkscape:pageshadow="2"
     inkscape:zoom="1.979899"
     inkscape:cx="54.139256"
     inkscape:cy="85.717637"
     inkscape:document-units="px"
     inkscape:current-layer="layer1"
     showgrid="false"
     units="px"
     inkscape:window-width="1280"
     inkscape:window-height="970"
     inkscape:window-x="0"
     inkscape:window-y="25"
     inkscape:window-maximized="1" />
  <metadata
     id="metadata7450">
    <rdf:RDF>
      <cc:Work
         rdf:about="">
        <dc:format>image/svg+xml</dc:format>
        <dc:type
           rdf:resource="http://purl.org/dc/dcmitype/StillImage" />
        <dc:title />
      </cc:Work>
    </rdf:RDF>
  </metadata>
  <g
     inkscape:label="Capa 1"
     inkscape:groupmode="layer"
     id="layer1"
     transform="translate(0,-902.36216)">
    <g
       id="g3474">
      <path
         d="m 142.21764,935.17911 c -8.11298,-7.99994 -18.22829,-12.22829 -29.25455,-12.22829 -1.26451,0 -2.49165,0.055 -3.67389,0.15212 0.24466,-0.81878 0.46069,-1.66967 0.63975,-2.55106 1.08463,-5.32487 -0.16451,-10.89095 -3.2585,-14.52569 -2.01143,-2.36281 -4.63974,-3.66403 -7.401816,-3.66403 -1.72685,0 -7.508562,0.64941 -9.40078,9.00616 -0.496809,2.19505 -1.925002,4.00037 -3.493583,5.39029 -4.092663,-1.29961 -8.337322,-1.95664 -12.664684,-1.95664 -5.200944,0 -10.251931,0.93879 -15.062416,2.79468 -1.918767,-1.45935 -3.910238,-3.55406 -4.515906,-6.22833 -1.892218,-8.35675 -7.673929,-9.00616 -9.40078,-9.00616 -2.761644,0 -5.39039,1.30122 -7.401389,3.66403 -3.094418,3.63474 -4.343126,9.20082 -3.258923,14.52569 0.179877,0.88179 0.394224,1.73268 0.637667,2.55106 -1.180592,-0.0971 -2.406477,-0.15252 -3.670558,-0.15252 -11.026693,0 -21.1432167,4.22875 -29.2562313,12.22869 -1.65995086,1.63596 -2.21452267,4.04051 -1.43066353,6.20265 0.257561,0.71081 6.50659163,17.22565 29.32226883,17.61256 -0.04365,0.8557 -0.06608,1.71342 -0.06608,2.57113 0,0.20991 0,0.42223 0.0047,0.63616 -3.933922,5.02424 -5.999783,10.68626 -5.999783,16.50921 0,9.67282 5.541993,18.5963 15.605342,25.12688 9.301489,6.0361 21.551558,9.3601 34.4929,9.3601 12.941303,0 25.191372,-3.324 34.492866,-9.3601 10.06252,-6.53058 15.60412,-15.45406 15.60412,-25.12688 0,-5.82295 -2.0646,-11.48497 -5.99857,-16.50921 0.004,-0.21393 0.004,-0.42625 0.004,-0.63616 0,-0.91912 -0.0251,-1.83824 -0.0747,-2.75616 20.03945,-1.86793 25.66826,-16.75485 25.91335,-17.42914 0.781,-2.16173 0.22851,-4.56549 -1.43317,-6.20104"
         style="fill:#aa5752;fill-opacity:1;fill-rule:nonzero;stroke:none;stroke-width:0.10593312;stroke-opacity:1"
         id="path4164-6"
         inkscape:connector-curvature="0" />
      <path
         d="m 103.81532,919.38954 c 1.77964,-8.74046 -5.783786,-15.90477 -7.860431,-6.73445 -1.193886,5.2747 -5.281137,8.83959 -8.540021,10.91945 4.006626,1.67408 7.682204,4.06018 10.893756,7.0146 1.942886,-2.31064 4.473556,-6.12599 5.506696,-11.1996"
         style="fill:#f2cc69;fill-opacity:1;fill-rule:nonzero;stroke:#b3b3b3;stroke-width:0.04083264"
         id="path4180-6"
         inkscape:connector-curvature="0" />
      <path
         d="m 137.76859,939.39261 c -14.77203,-14.56542 -32.0025,-10.35554 -38.565601,-7.9566 5.708181,5.59338 9.818261,13.03945 11.514801,21.4536 21.65873,1.38349 27.0508,-13.497 27.0508,-13.497"
         style="fill:#393536;fill-opacity:1;fill-rule:nonzero;stroke:#b3b3b3;stroke-width:0.04083264"
         id="path4182-3"
         inkscape:connector-curvature="0" />
      <path
         d="m 58.058953,924.45433 c -3.361509,-1.86835 -8.630568,-5.6865 -10.014723,-11.79924 -2.076253,-9.17032 -9.639636,-2.00601 -7.860003,6.73445 1.366705,6.71318 5.355489,11.22569 7.133867,12.95917 3.111438,-3.25384 6.739213,-5.93815 10.740859,-7.89438"
         style="fill:#f2cc69;fill-opacity:1;fill-rule:nonzero;stroke:#b3b3b3;stroke-width:0.04083264"
         id="path4184-5"
         inkscape:connector-curvature="0" />
      <path
         d="m 6.2313895,939.39261 c 0,0 5.9611565,16.45905 30.5406245,13.14781 1.635481,-7.7808 5.341372,-14.71593 10.461338,-20.10301 -2.685215,-1.26349 -23.55844,-10.24476 -41.0019625,6.9552"
         style="fill:#393536;fill-opacity:1;fill-rule:nonzero;stroke:#b3b3b3;stroke-width:0.04083264"
         id="path4186-2"
         inkscape:connector-curvature="0" />
      <path
         d="m 84.980548,946.04117 c -2.29307,0 -4.152466,-1.79649 -4.152466,-4.01201 0,-2.21592 1.859396,-4.01201 4.152466,-4.01201 2.2935,0 4.152465,1.79609 4.152465,4.01201 0,2.21552 -1.858965,4.01201 -4.152465,4.01201 z m -24.321947,0 c -2.293069,0 -4.152426,-1.79649 -4.152426,-4.01201 0,-2.21592 1.859357,-4.01201 4.152426,-4.01201 2.293501,0 4.152897,1.79609 4.152897,4.01201 0,2.21552 -1.859396,4.01201 -4.152897,4.01201 z m 37.650023,-15.45203 c -3.211552,-2.95442 -6.88713,-5.34052 -10.893756,-7.0146 -4.250071,-1.77603 -8.871541,-2.75214 -13.705281,-2.75214 -5.581442,0 -10.88003,1.29961 -15.650634,3.63193 -4.001646,1.95623 -7.629421,4.64054 -10.740859,7.89438 l -0.08474,0.0887 c -5.119966,5.38708 -8.825857,12.32221 -10.461338,20.10301 -0.610217,2.90346 -0.934246,5.9233 -0.934246,9.02503 0,0.90145 0.0302,1.79569 0.08392,2.6823 1.847318,-2.02808 4.070193,-3.89482 6.608784,-5.55927 -0.06937,-0.3853 -0.113016,-0.77984 -0.113016,-1.18442 0,-3.79848 3.187043,-6.87773 7.118495,-6.87773 2.141035,0 4.056115,0.91751 5.361332,2.36282 5.701086,-1.75917 12.078897,-2.74492 18.812305,-2.74492 7.134299,0 13.870217,1.10616 19.824707,3.06721 1.301883,-1.63033 3.337823,-2.68511 5.634226,-2.68511 3.931447,0 7.118487,3.07925 7.118487,6.87773 0,0.67349 -0.10466,1.32249 -0.2912,1.93738 2.08162,1.46818 3.92772,3.07884 5.50172,4.80631 0.0536,-0.88701 0.0839,-1.78085 0.0839,-2.6823 0,-2.97771 -0.29996,-5.87955 -0.86366,-8.67584 -1.69654,-8.41415 -5.80662,-15.86022 -11.514798,-21.4536 -0.293677,-0.28777 -0.592767,-0.56913 -0.894365,-0.84687"
         style="fill:#fef0f3;fill-opacity:1;fill-rule:nonzero;stroke:#b3b3b3;stroke-width:0.04083264"
         id="path4220-3"
         inkscape:connector-curvature="0" />
      <path
         d="m 49.53595,953.63534 c 2.21166,0 4.004156,1.73228 4.004156,3.86872 0,2.13686 -1.792496,3.86873 -4.004156,3.86873 -2.211228,0 -4.004116,-1.73187 -4.004116,-3.86873 0,-2.13644 1.792888,-3.86872 4.004116,-3.86872 z m 49.63257,0 c 2.21123,0 4.00416,1.73228 4.00416,3.86872 0,2.13686 -1.79293,3.86873 -4.00416,3.86873 -2.21166,0 -4.004548,-1.73187 -4.004548,-3.86873 0,-2.13644 1.792888,-3.86872 4.004548,-3.86872 z m 6.82729,5.8061 c 0.18654,-0.61489 0.2912,-1.26389 0.2912,-1.93738 0,-3.79848 -3.18704,-6.87773 -7.11849,-6.87773 -2.296403,0 -4.332343,1.05478 -5.634226,2.68511 -5.95449,-1.96105 -12.690408,-3.06721 -19.824707,-3.06721 -6.733408,0 -13.111219,0.98575 -18.812305,2.74492 -1.305217,-1.44531 -3.220297,-2.36282 -5.361332,-2.36282 -3.931452,0 -7.118495,3.07925 -7.118495,6.87773 0,0.40458 0.04365,0.79912 0.113016,1.18442 -2.538591,1.66445 -4.761466,3.53119 -6.608784,5.55927 -3.860827,4.23878 -6.079154,9.18236 -6.079154,14.46307 0,15.72175 19.63985,28.46658 43.867054,28.46658 24.227244,0 43.865843,-12.74483 43.865843,-28.46658 0,-5.28071 -2.21829,-10.22429 -6.0779,-14.46307 -1.574,-1.72747 -3.4201,-3.33813 -5.50172,-4.80631"
         style="fill:#f79690;fill-opacity:1;fill-rule:nonzero;stroke:#b3b3b3;stroke-width:0.04083264"
         id="path4222-7"
         inkscape:connector-curvature="0" />
      <path
         d="m 60.658601,938.01715 c -2.293069,0 -4.152426,1.79609 -4.152426,4.01201 0,2.21552 1.859357,4.01201 4.152426,4.01201 2.293501,0 4.152897,-1.79649 4.152897,-4.01201 0,-2.21592 -1.859396,-4.01201 -4.152897,-4.01201"
         style="fill:#393536;fill-opacity:1;fill-rule:nonzero;stroke:#b3b3b3;stroke-width:0.04083264"
         id="path4224-2"
         inkscape:connector-curvature="0" />
      <path
         d="m 89.133013,942.02916 c 0,-2.21592 -1.858965,-4.01201 -4.152465,-4.01201 -2.29307,0 -4.152466,1.79609 -4.152466,4.01201 0,2.21552 1.859396,4.01201 4.152466,4.01201 2.2935,0 4.152465,-1.79649 4.152465,-4.01201"
         style="fill:#393536;fill-opacity:1;fill-rule:nonzero;stroke:#b3b3b3;stroke-width:0.04083264"
         id="path4226-6"
         inkscape:connector-curvature="0" />
      <path
         d="m 49.53595,961.37279 c 2.21166,0 4.004156,-1.73187 4.004156,-3.86873 0,-2.13644 -1.792496,-3.86872 -4.004156,-3.86872 -2.211228,0 -4.004116,1.73228 -4.004116,3.86872 0,2.13686 1.792888,3.86873 4.004116,3.86873"
         style="fill:#393536;fill-opacity:1;fill-rule:nonzero;stroke:#b3b3b3;stroke-width:0.04083264"
         id="path4262-5"
         inkscape:connector-curvature="0" />
      <path
         d="m 95.163972,957.50406 c 0,2.13686 1.792888,3.86873 4.004548,3.86873 2.21123,0 4.00416,-1.73187 4.00416,-3.86873 0,-2.13644 -1.79293,-3.86872 -4.00416,-3.86872 -2.21166,0 -4.004548,1.73228 -4.004548,3.86872"
         style="fill:#393536;fill-opacity:1;fill-rule:nonzero;stroke:#b3b3b3;stroke-width:0.04083264"
         id="path4264-6"
         inkscape:connector-curvature="0" />
      <g
         id="text5215-3-8"
         style="font-style:normal;font-variant:normal;font-weight:normal;font-stretch:normal;font-size:51.77826691px;line-height:125%;font-family:Ubuntu;-inkscape-font-specification:Ubuntu;letter-spacing:0px;word-spacing:0px;fill:#ffffff;fill-opacity:1;stroke:#aa5752;stroke-width:7.18325996;stroke-linecap:butt;stroke-linejoin:miter;stroke-miterlimit:4;stroke-dasharray:none;stroke-opacity:1"
         transform="matrix(0.99709537,-0.19517344,0.20200555,0.96337212,0,0)">
        <path
           id="path3384"
           style="font-style:normal;font-variant:normal;font-weight:normal;font-stretch:normal;font-family:'Variane Script';-inkscape-font-specification:'Variane Script';fill:#ffffff;stroke:#aa5752;stroke-width:7.18325996;stroke-miterlimit:4;stroke-dasharray:none;stroke-opacity:1"
           d="m -170.13671,1050.1544 q -1.81224,-1.7604 -2.95137,-4.2458 -1.08734,-2.5889 -1.39801,-5.7474 -0.41422,-3.728 -0.15533,-7.5078 0.31067,-3.7798 1.08734,-7.6632 0.98379,-5.2296 2.64069,-8.7505 0.82845,-1.8123 1.76046,-3.1585 0.93201,-1.3462 2.12291,-2.2265 0.56956,-0.4142 1.55335,-0.8284 0.98379,-0.4142 2.17469,-0.5696 1.03556,-0.1035 2.27824,0 1.24268,0.1036 2.48536,0.5178 1.24268,0.3625 2.33002,1.1391 1.13912,0.7767 1.96757,2.0712 0.56956,0.8802 0.98379,2.1746 0.41423,1.2945 0.62134,3.1585 0.36245,3.262 -0.15533,7.1972 -0.15534,1.0356 -0.31067,1.8122 -0.15534,0.7249 -0.31067,1.2945 -0.10356,0.2589 -0.41423,0.8284 -0.31067,0.5696 -0.98379,0.6732 -0.62134,0.052 -1.13912,-0.3107 -0.36245,-0.2589 -0.82845,-0.8802 -0.41423,-0.6214 -0.41423,-1.3981 0,-0.7766 0.15534,-1.7086 0.15533,-0.9838 0.41422,-2.0712 0.25889,-1.1391 0.41423,-2.4853 0.25889,-2.1747 -0.0518,-3.5209 -0.25889,-1.3463 -0.51778,-2.2265 -0.25889,-0.6213 -0.82845,-1.2945 -0.51779,-0.6731 -1.24268,-1.0873 -0.77668,-0.4142 -1.50157,-0.5696 -0.67312,-0.1553 -1.70868,-0.052 -0.93201,0.1035 -1.81224,0.6731 -0.88023,0.5695 -1.65691,1.7604 -0.82845,1.3463 -1.76046,3.3138 -0.88023,1.9158 -1.50157,4.453 -2.33002,9.7343 -1.34623,18.3813 0.25889,2.4335 1.03556,4.1422 0.77668,1.7087 1.81224,2.796 0.93201,1.0356 2.43358,1.5534 1.55335,0.5178 3.21025,0.2589 1.50157,-0.2589 2.33002,-0.7249 0.88023,-0.5178 1.65691,-1.5534 0.15533,-0.2071 0.41422,-0.7766 0.2589,-0.5696 0.56957,-1.1909 0.36244,-0.6214 0.77667,-1.0874 0.41423,-0.5178 0.88023,-0.6213 l 0.0518,0 q 0.62134,0 0.93201,0.2589 0.15533,0.1035 0.31067,0.3624 0.20711,0.2071 0.25889,0.6214 0.10355,0.5695 -0.0518,1.1391 -0.10356,0.5695 -0.36245,0.9838 -0.56956,0.9838 -1.24268,1.9158 -0.62134,0.8802 -1.44979,1.6569 -0.82845,0.7766 -1.91579,1.2944 -1.08735,0.5696 -2.53714,0.7767 -2.69247,0.4142 -5.02249,-0.4142 -2.27824,-0.7767 -4.09048,-2.5372 z" />
        <path
           id="path3386"
           style="font-style:normal;font-variant:normal;font-weight:normal;font-stretch:normal;font-family:'Variane Script';-inkscape-font-specification:'Variane Script';fill:#ffffff;stroke:#aa5752;stroke-width:7.18325996;stroke-miterlimit:4;stroke-dasharray:none;stroke-opacity:1"
           d="m -127.8007,1018.1037 q 0.7249,3.2102 0.7249,7.0936 0,3.1067 -0.20712,5.851 -0.20711,2.7442 -0.62134,5.2296 -0.82845,4.8671 -2.58891,8.4916 -3.62448,7.4561 -9.88965,7.4561 -5.33316,0 -8.69875,-4.5565 -0.82845,-1.0874 -1.44979,-2.33 -0.62134,-1.2945 -1.03556,-2.6925 -0.41423,-1.398 -0.62134,-2.9514 -0.20712,-1.6051 -0.20712,-3.3138 0,-6.4723 1.50157,-12.8928 0.41423,-1.6569 0.88023,-3.1584 0.46601,-1.5534 1.03557,-2.8996 0.88023,-2.0712 1.96757,-4.0905 1.08735,-2.0194 2.48536,-3.9869 0.15534,-0.2071 0.41423,-0.6732 0.31067,-0.466 0.67311,-0.8802 0.36245,-0.4142 0.82846,-0.6213 0.51778,-0.2589 1.08734,-0.052 0.88023,0.3107 1.6569,1.0356 0.77668,0.6731 0.88023,1.1909 0.0518,0.4142 -0.0518,0.7766 -0.0518,0.3107 -0.36245,0.7767 -0.25889,0.4142 -0.77668,0.9838 -0.466,0.5178 -1.24267,1.3462 -0.20712,0.2071 -0.31067,0.3625 -0.93201,1.2427 -1.81224,3.1585 -0.82845,1.864 -1.70869,4.4011 -1.34623,4.194 -2.01935,8.0256 -0.67312,3.7799 -0.67312,7.1454 0,6.4723 1.86402,9.579 1.76046,3.0032 5.28139,3.0032 5.02249,0 7.50784,-5.7474 2.69247,-6.1616 2.69247,-18.226 0,-6.524 -2.1229,-10.2003 -0.41423,-0.7249 -0.98379,-1.2427 -0.56956,-0.5178 -1.39802,-0.6731 -0.56956,-0.1035 -1.50156,0.7249 -0.88024,0.7767 -1.86402,2.5371 -2.12291,3.6763 -2.12291,10.2004 0,10.8734 2.12291,16.8279 0.10355,0.7767 -0.15534,1.0873 -0.25889,0.3107 -0.67311,0.3107 -0.36245,-0.052 -0.77668,-0.3107 -0.41422,-0.3106 -0.62134,-0.7766 -1.1909,-2.9514 -1.81224,-6.4723 -0.41422,-2.4854 -0.77667,-4.8672 -0.31067,-2.4336 -0.31067,-5.5403 0,-2.0193 0.10356,-3.7798 0.10355,-1.7604 0.466,-3.3138 0.41423,-1.5533 0.77667,-2.8996 0.41423,-1.3462 1.13913,-2.4335 0.72489,-0.9838 1.39801,-1.9158 0.72489,-0.932 1.60513,-1.6052 1.03556,-0.8284 2.22646,-0.8802 1.24268,-0.052 2.33002,0.3625 1.13912,0.4142 2.07113,1.1909 0.93201,0.7249 1.39802,1.5015 0.72489,1.1392 1.29445,2.4854 0.56956,1.2944 0.98379,2.8478 z" />
        <path
           id="path3388"
           style="font-style:normal;font-variant:normal;font-weight:normal;font-stretch:normal;font-family:'Variane Script';-inkscape-font-specification:'Variane Script';fill:#ffffff;stroke:#aa5752;stroke-width:7.18325996;stroke-miterlimit:4;stroke-dasharray:none;stroke-opacity:1"
           d="m -92.74924,1013.1848 q 0.103557,1.1909 0.155335,2.7442 0.103557,1.5016 0.103557,3.4174 0,3.0031 -0.207113,5.8509 -0.155335,2.8478 -0.466005,5.5403 -0.724896,5.3849 -2.019352,10.045 l 0,0.052 q -0.776674,2.6924 -1.708683,4.7118 -0.880231,2.0193 -1.915796,3.3656 -2.174683,2.9513 -4.970713,2.9513 -3.15847,0 -5.07427,-3.1067 -1.08734,-1.8122 -2.01935,-5.1778 0,-0.1036 -0.0518,-0.1553 0,-0.052 0,-0.1036 -1.03557,4.2458 -2.3818,6.4205 -1.86402,3.262 -4.55649,3.262 -2.22646,0 -3.88337,-1.5015 -1.55335,-1.398 -2.58891,-4.1423 -1.03557,-2.796 -1.50157,-6.6794 -0.25889,-1.9676 -0.41423,-4.2458 -0.10355,-2.2782 -0.10355,-4.9189 0,-2.7443 0.10355,-6.5759 0.10356,-3.8316 0.82845,-9.3201 0.0518,-0.7766 0.36245,-1.7604 0.36245,-0.9838 1.08735,-1.8123 0.36244,-0.466 0.932,-0.7766 0.62134,-0.3625 1.34624,-0.466 0.72489,-0.1554 1.6569,0 0.93201,0.1553 2.01936,0.7249 1.76046,0.9837 2.43357,3.2102 0.67312,2.1229 0.62134,5.4367 -0.15533,3.0549 -0.77667,5.5921 -0.62134,2.5889 -1.86402,4.8671 -0.51778,0.932 -1.13912,1.3463 -0.77667,0.466 -1.6569,0 -0.62134,-0.3107 -0.7249,-0.9838 -0.15533,-0.9838 1.1909,-2.2265 0.36245,-0.6731 0.7249,-2.2782 0.41422,-1.6569 0.62134,-5.0225 0.15533,-3.4174 -0.10356,-4.7636 -0.25889,-1.398 -1.13912,-1.5016 -0.15534,0 -0.25889,0.2071 -0.10356,0.1554 -0.20712,0.4142 -0.10355,0.2072 -0.20711,0.4661 -0.0518,0.2071 -0.0518,0.2588 -0.36245,1.3463 -0.67312,2.9514 -0.25889,1.5534 -0.466,3.3656 -0.62134,5.3849 -0.62134,12.9963 0,5.7474 1.39801,9.6308 0.41423,1.2427 1.08735,2.4336 0.72489,1.1391 1.6569,1.1391 1.34624,0 2.89958,-2.8996 1.70869,-3.1585 2.48536,-7.4561 0.31067,-1.7086 0.51778,-3.1067 0.25889,-1.4497 0.41423,-3.1584 0.20711,-1.7087 0.31067,-3.987 0.15533,-2.2782 0.25889,-5.6438 0,-0.5695 0.15534,-1.1391 0.10355,-0.2589 0.31067,-0.7767 0.20711,-0.5695 0.77667,-0.932 0.25889,-0.1553 0.67312,-0.3107 0.466,-0.1553 0.88023,-0.1553 0.98378,0 1.60512,0.3625 0.62134,0.3624 1.1909,1.0873 0.41423,0.466 -0.0518,0.932 -0.2589,0.2589 -0.7249,1.4498 -0.41423,1.1909 -0.77667,4.2976 -0.15534,1.2427 -0.2589,2.0711 -0.10355,0.7767 -0.20711,1.6569 -0.0518,0.8803 -0.10356,2.1747 0,1.2427 0,3.4692 0,5.4367 1.39802,8.854 0.62134,1.5016 1.29445,2.2783 0.67312,0.5695 1.24268,0.5695 0.88023,0 1.9158,-1.398 0.56956,-0.7766 1.13912,-1.9675 0.62134,-1.2427 1.190901,-2.8478 1.087343,-3.1067 1.915796,-6.9901 0.828452,-3.9352 1.398013,-8.6988 0.155335,-1.1909 0.207113,-2.4335 0.103556,-1.2427 0.155335,-2.589 0,-0.8802 0,-1.9675 0,-1.1391 -0.05178,-2.6407 -0.103556,-1.6051 -0.103556,-2.7443 0,-1.1391 0,-1.8122 0,-0.6213 -0.258891,-0.9838 -0.466005,-0.6731 -0.466005,-1.864 0,-0.3625 0.103557,-0.5696 0.155335,-0.2589 0.258891,-0.3624 0.362448,-0.3107 0.932009,-0.3107 0.466004,0 0.983787,0.2589 0.569561,0.2071 0.983787,0.9838 0.517783,0.932 0.828452,3.4174 z" />
      </g>
      <g
         id="text5215-3"
         style="font-style:normal;font-variant:normal;font-weight:normal;font-stretch:normal;font-size:51.77827072px;line-height:125%;font-family:Ubuntu;-inkscape-font-specification:Ubuntu;letter-spacing:0px;word-spacing:0px;fill:#fef0f3;fill-opacity:1;stroke:none;stroke-width:1px;stroke-linecap:butt;stroke-linejoin:miter;stroke-opacity:1"
         transform="matrix(0.99709535,-0.19517344,0.20200557,0.96337214,0,0)">
        <path
           id="path3377"
           style="font-style:normal;font-variant:normal;font-weight:normal;font-stretch:normal;font-family:'Variane Script';-inkscape-font-specification:'Variane Script';fill:#fef0f3;fill-opacity:1"
           d="m -170.13673,1050.1543 q -1.81224,-1.7604 -2.95136,-4.2458 -1.08734,-2.5889 -1.39801,-5.7474 -0.41423,-3.728 -0.15534,-7.5078 0.31067,-3.7799 1.08735,-7.6632 0.98378,-5.2296 2.64069,-8.7506 0.82845,-1.8122 1.76046,-3.1584 0.93201,-1.3463 2.12291,-2.2265 0.56956,-0.4142 1.55335,-0.8284 0.98378,-0.4143 2.17468,-0.5696 1.03557,-0.1036 2.27825,0 1.24268,0.1036 2.48535,0.5178 1.24268,0.3624 2.33003,1.1391 1.13912,0.7767 1.96757,2.0711 0.56956,0.8803 0.98379,2.1747 0.41422,1.2945 0.62134,3.1585 0.36244,3.262 -0.15534,7.1972 -0.15533,1.0355 -0.31067,1.8122 -0.15533,0.7249 -0.31067,1.2945 -0.10355,0.2589 -0.41422,0.8284 -0.31067,0.5696 -0.98379,0.6731 -0.62134,0.052 -1.13912,-0.3106 -0.36245,-0.2589 -0.82846,-0.8803 -0.41422,-0.6213 -0.41422,-1.398 0,-0.7766 0.15533,-1.7087 0.15534,-0.9837 0.41423,-2.0711 0.25889,-1.1391 0.41423,-2.4853 0.25889,-2.1747 -0.0518,-3.521 -0.25889,-1.3462 -0.51779,-2.2264 -0.25889,-0.6214 -0.82845,-1.2945 -0.51778,-0.6731 -1.24268,-1.0873 -0.77667,-0.4143 -1.50157,-0.5696 -0.67311,-0.1553 -1.70868,-0.052 -0.93201,0.1036 -1.81224,0.6731 -0.88023,0.5696 -1.6569,1.7605 -0.82846,1.3462 -1.76046,3.3138 -0.88023,1.9158 -1.50157,4.4529 -2.33003,9.7344 -1.34624,18.3813 0.25889,2.4336 1.03557,4.1423 0.77667,1.7087 1.81224,2.796 0.932,1.0356 2.43357,1.5534 1.55335,0.5178 3.21026,0.2589 1.50157,-0.2589 2.33002,-0.7249 0.88023,-0.5178 1.6569,-1.5534 0.15534,-0.2071 0.41423,-0.7767 0.25889,-0.5695 0.56956,-1.1909 0.36245,-0.6213 0.77668,-1.0873 0.41422,-0.5178 0.88023,-0.6213 l 0.0518,0 q 0.62134,0 0.93201,0.2589 0.15534,0.1035 0.31067,0.3624 0.20712,0.2071 0.25889,0.6213 0.10356,0.5696 -0.0518,1.1392 -0.10356,0.5695 -0.36245,0.9837 -0.56956,0.9838 -1.24268,1.9158 -0.62134,0.8803 -1.44979,1.6569 -0.82845,0.7767 -1.9158,1.2945 -1.08734,0.5696 -2.53713,0.7767 -2.69247,0.4142 -5.0225,-0.4142 -2.27824,-0.7767 -4.09048,-2.5372 z" />
        <path
           id="path3379"
           style="font-style:normal;font-variant:normal;font-weight:normal;font-stretch:normal;font-family:'Variane Script';-inkscape-font-specification:'Variane Script';fill:#fef0f3;fill-opacity:1"
           d="m -127.80071,1018.1036 q 0.72489,3.2102 0.72489,7.0936 0,3.1067 -0.20711,5.8509 -0.20711,2.7443 -0.62134,5.2296 -0.82845,4.8672 -2.58891,8.4917 -3.62448,7.456 -9.88965,7.456 -5.33316,0 -8.69875,-4.5564 -0.82845,-1.0874 -1.44979,-2.3301 -0.62134,-1.2944 -1.03557,-2.6924 -0.41422,-1.398 -0.62134,-2.9514 -0.20711,-1.6051 -0.20711,-3.3138 0,-6.4723 1.50157,-12.8928 0.41423,-1.6569 0.88023,-3.1585 0.46601,-1.5533 1.03557,-2.8996 0.88023,-2.0711 1.96757,-4.0904 1.08734,-2.0194 2.48536,-3.987 0.15533,-0.2071 0.41422,-0.6731 0.31067,-0.466 0.67312,-0.8802 0.36245,-0.4142 0.82845,-0.6213 0.51779,-0.2589 1.08735,-0.052 0.88023,0.3106 1.6569,1.0355 0.77668,0.6732 0.88023,1.1909 0.0518,0.4143 -0.0518,0.7767 -0.0518,0.3107 -0.36244,0.7767 -0.25889,0.4142 -0.77668,0.9838 -0.466,0.5178 -1.24268,1.3462 -0.20711,0.2071 -0.31067,0.3625 -0.932,1.2426 -1.81224,3.1584 -0.82845,1.864 -1.70868,4.4012 -1.34623,4.194 -2.01935,8.0256 -0.67312,3.7798 -0.67312,7.1454 0,6.4723 1.86402,9.579 1.76046,3.0031 5.28138,3.0031 5.0225,0 7.50785,-5.7473 2.69247,-6.1617 2.69247,-18.226 0,-6.5241 -2.12291,-10.2003 -0.41422,-0.7249 -0.98378,-1.2427 -0.56956,-0.5178 -1.39802,-0.6731 -0.56956,-0.1036 -1.50157,0.7249 -0.88023,0.7767 -1.86401,2.5371 -2.12291,3.6763 -2.12291,10.2003 0,10.8735 2.12291,16.828 0.10355,0.7766 -0.15534,1.0873 -0.25889,0.3107 -0.67312,0.3107 -0.36244,-0.052 -0.77667,-0.3107 -0.41423,-0.3107 -0.62134,-0.7767 -1.1909,-2.9513 -1.81224,-6.4722 -0.41423,-2.4854 -0.77667,-4.8672 -0.31067,-2.4336 -0.31067,-5.5403 0,-2.0193 0.10355,-3.7798 0.10356,-1.7604 0.46601,-3.3138 0.41422,-1.5533 0.77667,-2.8996 0.41423,-1.3462 1.13912,-2.4336 0.7249,-0.9837 1.39802,-1.9158 0.72489,-0.932 1.60512,-1.6051 1.03557,-0.8284 2.22647,-0.8802 1.24268,-0.052 2.33002,0.3624 1.13912,0.4143 2.07113,1.1909 0.93201,0.7249 1.39802,1.5016 0.72489,1.1391 1.29445,2.4854 0.56956,1.2944 0.98379,2.8478 z" />
        <path
           id="path3381"
           style="font-style:normal;font-variant:normal;font-weight:normal;font-stretch:normal;font-family:'Variane Script';-inkscape-font-specification:'Variane Script';fill:#fef0f3;fill-opacity:1"
           d="m -92.749249,1013.1846 q 0.103557,1.1909 0.155335,2.7443 0.103557,1.5015 0.103557,3.4173 0,3.0032 -0.207113,5.851 -0.155335,2.8478 -0.466005,5.5403 -0.724896,5.3849 -2.019352,10.0449 l 0,0.052 q -0.776674,2.6925 -1.708683,4.7119 -0.880231,2.0193 -1.915796,3.3655 -2.174684,2.9514 -4.970714,2.9514 -3.15847,0 -5.07427,-3.1067 -1.08734,-1.8122 -2.01935,-5.1778 0,-0.1036 -0.0518,-0.1554 0,-0.052 0,-0.1035 -1.03557,4.2458 -2.3818,6.4205 -1.86402,3.262 -4.55649,3.262 -2.22647,0 -3.88337,-1.5015 -1.55335,-1.3981 -2.58891,-4.1423 -1.03557,-2.796 -1.50157,-6.6794 -0.2589,-1.9676 -0.41423,-4.2458 -0.10356,-2.2783 -0.10356,-4.919 0,-2.7442 0.10356,-6.5758 0.10356,-3.8316 0.82845,-9.3201 0.0518,-0.7767 0.36245,-1.7605 0.36245,-0.9837 1.08734,-1.8122 0.36245,-0.466 0.93201,-0.7767 0.62134,-0.3624 1.34624,-0.466 0.72489,-0.1553 1.6569,0 0.93201,0.1554 2.01936,0.7249 1.76046,0.9838 2.43357,3.2103 0.67312,2.1229 0.62134,5.4367 -0.15533,3.0549 -0.77667,5.5921 -0.62134,2.5889 -1.86402,4.8671 -0.51778,0.932 -1.13912,1.3462 -0.77667,0.466 -1.65691,0 -0.62133,-0.3106 -0.72489,-0.9837 -0.15534,-0.9838 1.1909,-2.2265 0.36245,-0.6731 0.72489,-2.2783 0.41423,-1.6569 0.62134,-5.0224 0.15534,-3.4174 -0.10355,-4.7636 -0.25889,-1.3981 -1.13912,-1.5016 -0.15534,0 -0.2589,0.2071 -0.10355,0.1553 -0.20711,0.4142 -0.10356,0.2071 -0.20711,0.466 -0.0518,0.2071 -0.0518,0.2589 -0.36245,1.3463 -0.67312,2.9514 -0.25889,1.5533 -0.466,3.3656 -0.62134,5.3849 -0.62134,12.9963 0,5.7474 1.39801,9.6308 0.41423,1.2427 1.08735,2.4336 0.72489,1.1391 1.6569,1.1391 1.34624,0 2.89958,-2.8996 1.70869,-3.1585 2.48536,-7.4561 0.31067,-1.7087 0.51778,-3.1067 0.25889,-1.4498 0.41423,-3.1585 0.20711,-1.7086 0.31067,-3.9869 0.15533,-2.2782 0.25889,-5.6438 0,-0.5696 0.15534,-1.1391 0.10355,-0.2589 0.31066,-0.7767 0.20712,-0.5696 0.77668,-0.932 0.25889,-0.1553 0.67312,-0.3107 0.466,-0.1553 0.88023,-0.1553 0.98378,0 1.60512,0.3624 0.62134,0.3625 1.1909,1.0874 0.41423,0.466 -0.0518,0.932 -0.2589,0.2589 -0.7249,1.4498 -0.41423,1.1909 -0.77667,4.2976 -0.15534,1.2426 -0.2589,2.0711 -0.10355,0.7767 -0.20711,1.6569 -0.0518,0.8802 -0.10356,2.1747 0,1.2427 0,3.4691 0,5.4368 1.39802,8.8541 0.62134,1.5016 1.29445,2.2783 0.67312,0.5695 1.24268,0.5695 0.88023,0 1.9158,-1.398 0.56956,-0.7767 1.13912,-1.9676 0.62134,-1.2426 1.190901,-2.8478 1.087344,-3.1067 1.915796,-6.99 0.828453,-3.9352 1.398014,-8.6988 0.155334,-1.1909 0.207113,-2.4336 0.103556,-1.2426 0.155335,-2.5889 0,-0.8802 0,-1.9675 0,-1.1392 -0.05178,-2.6407 -0.103556,-1.6052 -0.103556,-2.7443 0,-1.1391 0,-1.8122 0,-0.6214 -0.258892,-0.9838 -0.466004,-0.6731 -0.466004,-1.864 0,-0.3625 0.103556,-0.5696 0.155335,-0.2589 0.258892,-0.3624 0.362448,-0.3107 0.932009,-0.3107 0.466004,0 0.983787,0.2589 0.569561,0.2071 0.983787,0.9838 0.517783,0.932 0.828452,3.4173 z" />
      </g>
    </g>
  </g>
</svg>
