<?xml version="1.0" encoding="UTF-8" standalone="no"?>
<!-- Created with Inkscape (http://www.inkscape.org/) -->

<svg
   xmlns:dc="http://purl.org/dc/elements/1.1/"
   xmlns:cc="http://creativecommons.org/ns#"
   xmlns:rdf="http://www.w3.org/1999/02/22-rdf-syntax-ns#"
   xmlns:svg="http://www.w3.org/2000/svg"
   xmlns="http://www.w3.org/2000/svg"
   xmlns:sodipodi="http://sodipodi.sourceforge.net/DTD/sodipodi-0.dtd"
   xmlns:inkscape="http://www.inkscape.org/namespaces/inkscape"
   width="144"
   height="150"
   viewBox="0 0 144 150"
   id="svg7445"
   version="1.1"
   inkscape:version="0.91 r13725"
   sodipodi:docname="cow-logo-vertical.svg">
  <defs
     id="defs7447" />
  <sodipodi:namedview
     id="base"
     pagecolor="#ffffff"
     bordercolor="#666666"
     borderopacity="1.0"
     inkscape:pageopacity="0.0"
     inkscape:pageshadow="2"
     inkscape:zoom="2.8"
     inkscape:cx="59.209163"
     inkscape:cy="67.164103"
     inkscape:document-units="px"
     inkscape:current-layer="layer1"
     showgrid="false"
     units="px"
     inkscape:window-width="1280"
     inkscape:window-height="965"
     inkscape:window-x="0"
     inkscape:window-y="30"
     inkscape:window-maximized="1" />
  <metadata
     id="metadata7450">
    <rdf:RDF>
      <cc:Work
         rdf:about="">
        <dc:format>image/svg+xml</dc:format>
        <dc:type
           rdf:resource="http://purl.org/dc/dcmitype/StillImage" />
        <dc:title />
      </cc:Work>
    </rdf:RDF>
  </metadata>
  <g
     inkscape:label="Capa 1"
     inkscape:groupmode="layer"
     id="layer1"
     transform="translate(0,-902.36216)">
    <g
       id="g5559"
       transform="matrix(0.99506316,0,0,1,-5.7640236e-4,0)">
      <path
         d="m 142.76935,936.30418 c -8.15107,-8.01054 -18.314,-12.24448 -29.39211,-12.24448 -1.27042,0 -2.50333,0.055 -3.69114,0.15231 0.24591,-0.81987 0.46288,-1.67188 0.6428,-2.55443 1.08971,-5.33192 -0.16521,-10.90537 -3.27376,-14.54491 -2.02097,-2.36596 -4.66162,-3.66889 -7.436685,-3.66889 -1.734918,0 -7.543843,0.65026 -9.444969,9.01808 -0.499063,2.19795 -1.934015,4.00567 -3.509961,5.39743 -4.111928,-1.30133 -8.376524,-1.95923 -12.724199,-1.95923 -5.225368,0 -10.300117,0.94002 -15.133221,2.79837 -1.927812,-1.46127 -3.928657,-3.55875 -4.53715,-6.23657 -1.901126,-8.36782 -7.709973,-9.01808 -9.444896,-9.01808 -2.774672,0 -5.415781,1.30293 -7.436291,3.66889 -3.108948,3.63954 -4.363456,9.21299 -3.274214,14.54491 0.180782,0.88296 0.396075,1.73497 0.64073,2.55443 -1.18622,-0.0973 -2.417855,-0.15272 -3.687881,-0.15272 -11.07849,0 -21.2426368,4.23435 -29.3937632,12.24488 -1.66770528,1.63812 -2.22490101,4.04587 -1.43736332,6.21087 0.25883394,0.71175 6.53719252,17.24844 29.46010952,17.63587 -0.04348,0.85684 -0.06622,1.71569 -0.06622,2.57453 0,0.2102 0,0.42278 0.0086,0.63699 -3.9524,5.03091 -6.027953,10.70041 -6.027953,16.53108 0,9.68561 5.568004,18.62091 15.678711,25.16009 9.345174,6.0441 21.652758,9.3726 34.654995,9.3726 13.002155,0 25.309725,-3.3285 34.654981,-9.3726 10.1099,-6.53918 15.6775,-15.47448 15.6775,-25.16009 0,-5.83067 -2.07428,-11.50017 -6.02681,-16.53108 0.008,-0.21421 0.008,-0.42679 0.008,-0.63699 0,-0.92033 -0.0254,-1.84067 -0.0749,-2.75982 20.13367,-1.8704 25.78894,-16.77702 26.03521,-17.4522 0.78466,-2.1646 0.22955,-4.57153 -1.4399,-6.20925"
         style="fill:#4a89dc;fill-opacity:1;fill-rule:nonzero;stroke:none;stroke-width:0.10593312;stroke-opacity:1"
         id="path4164-6-2-3"
         inkscape:connector-curvature="0" />
      <path
         d="m 104.18658,920.4937 c 1.78795,-8.75203 -5.811063,-15.92582 -7.897442,-6.74336 -1.199544,5.28168 -5.305897,8.85129 -8.580111,10.9339 4.025427,1.67629 7.718252,4.06555 10.94492,7.02389 1.952023,-2.3137 4.494613,-6.1341 5.532633,-11.21443"
         style="fill:#f2cc69;fill-opacity:1;fill-rule:nonzero;stroke:#b3b3b3;stroke-width:0.04095556"
         id="path4180-6-6-6"
         inkscape:connector-curvature="0" />
      <path
         d="m 138.2994,940.52325 c -14.8414,-14.5847 -32.15292,-10.36924 -38.746892,-7.96713 5.735012,5.60079 9.864442,13.0567 11.569012,21.48199 21.76051,1.38533 27.17788,-13.51486 27.17788,-13.51486"
         style="fill:#393536;fill-opacity:1;fill-rule:nonzero;stroke:#b3b3b3;stroke-width:0.04095556"
         id="path4182-3-1-7"
         inkscape:connector-curvature="0" />
      <path
         d="m 58.215134,925.56519 c -3.37728,-1.87081 -8.671202,-5.69402 -10.061882,-11.81485 -2.085987,-9.18246 -9.684869,-2.00867 -7.896908,6.74336 1.373158,6.72206 5.380735,11.24055 7.167358,12.97632 3.126137,-3.25815 6.770947,-5.946 10.791432,-7.90483"
         style="fill:#f2cc69;fill-opacity:1;fill-rule:nonzero;stroke:#b3b3b3;stroke-width:0.04095556"
         id="path4184-5-8-5"
         inkscape:connector-curvature="0" />
      <path
         d="m 6.143912,940.52325 c 0,0 5.989162,16.48083 30.684255,13.16521 1.643093,-7.79109 5.366488,-14.7354 10.51046,-20.12961 -2.697891,-1.26517 -23.669188,-10.25833 -41.194715,6.9644"
         style="fill:#393536;fill-opacity:1;fill-rule:nonzero;stroke:#b3b3b3;stroke-width:0.04095556"
         id="path4186-2-7-3"
         inkscape:connector-curvature="0" />
      <path
         d="m 85.263207,947.1806 c -2.303826,0 -4.171978,-1.79887 -4.171978,-4.01731 0,-2.21886 1.868152,-4.01732 4.171978,-4.01732 2.304351,0 4.171978,1.79846 4.171978,4.01732 0,2.21844 -1.867627,4.01731 -4.171978,4.01731 z m -24.436259,0 c -2.303821,0 -4.171907,-1.79887 -4.171907,-4.01731 0,-2.21886 1.868086,-4.01732 4.171907,-4.01732 2.304359,0 4.172443,1.79846 4.172443,4.01732 0,2.21844 -1.868084,4.01731 -4.172443,4.01731 z m 37.826999,-15.47247 c -3.226668,-2.95834 -6.919493,-5.3476 -10.94492,-7.02389 -4.270103,-1.77838 -8.913254,-2.75578 -13.769701,-2.75578 -5.607734,0 -10.931149,1.30133 -15.724192,3.63673 -4.020485,1.95883 -7.665295,4.64668 -10.791432,7.90483 l -0.08508,0.0888 c -5.143973,5.39421 -8.867367,12.33852 -10.510461,20.12961 -0.613109,2.9073 -0.938692,5.93114 -0.938692,9.03698 0,0.90264 0.03009,1.79807 0.08433,2.68585 1.855979,-2.03078 4.089306,-3.89997 6.63979,-5.56662 -0.06983,-0.38582 -0.113493,-0.78088 -0.113493,-1.18599 0,-3.80352 3.201982,-6.88685 7.151974,-6.88685 2.150998,0 4.075129,0.91874 5.386555,2.36595 5.727786,-1.76149 12.135629,-2.74855 18.900696,-2.74855 7.16783,0 13.935366,1.10763 19.917903,3.07127 1.307954,-1.63249 3.353463,-2.68867 5.660695,-2.68867 3.949871,0 7.151911,3.08333 7.151911,6.88685 0,0.67438 -0.10505,1.32424 -0.29261,1.93994 2.09146,1.47012 3.94618,3.08292 5.52769,4.81267 0.0542,-0.88819 0.0842,-1.78321 0.0842,-2.68585 0,-2.98165 -0.30137,-5.88734 -0.86766,-8.68733 -1.70457,-8.42529 -5.834,-15.88121 -11.569008,-21.48199 -0.295019,-0.28815 -0.595511,-0.56988 -0.898561,-0.848"
         style="fill:#fef0f3;fill-opacity:1;fill-rule:nonzero;stroke:#b3b3b3;stroke-width:0.04095556"
         id="path4220-3-9-5"
         inkscape:connector-curvature="0" />
      <path
         d="m 49.65208,954.78483 c 2.222025,0 4.022961,1.73457 4.022961,3.87385 0,2.13968 -1.800936,3.87385 -4.022961,3.87385 -2.221624,0 -4.02296,-1.73417 -4.02296,-3.87385 0,-2.13928 1.801336,-3.87385 4.02296,-3.87385 z m 49.865844,0 c 2.221626,0 4.022906,1.73457 4.022906,3.87385 0,2.13968 -1.80128,3.87385 -4.022906,3.87385 -2.222086,0 -4.023359,-1.73417 -4.023359,-3.87385 0,-2.13928 1.801273,-3.87385 4.023359,-3.87385 z m 6.859306,5.81379 c 0.18747,-0.6157 0.29261,-1.26556 0.29261,-1.93994 0,-3.80352 -3.20204,-6.88684 -7.151916,-6.88684 -2.307232,0 -4.352741,1.05617 -5.660695,2.68866 -5.982537,-1.96364 -12.750073,-3.07127 -19.917903,-3.07127 -6.765062,0 -13.172905,0.98706 -18.900691,2.74855 -1.311426,-1.44721 -3.235557,-2.36594 -5.386555,-2.36594 -3.949992,0 -7.151974,3.08332 -7.151974,6.88684 0,0.40511 0.04348,0.80017 0.113493,1.18599 -2.550484,1.66665 -4.783811,3.53584 -6.63979,5.56662 -3.878965,4.24439 -6.107744,9.1945 -6.107744,14.48222 0,15.74255 19.73217,28.50429 44.073261,28.50429 24.34115,0 44.071984,-12.76174 44.071984,-28.50429 0,-5.28772 -2.22871,-10.23783 -6.1064,-14.48222 -1.5815,-1.72975 -3.43622,-3.34255 -5.52768,-4.81267"
         style="fill:#f79690;fill-opacity:1;fill-rule:nonzero;stroke:#b3b3b3;stroke-width:0.04095556"
         id="path4222-7-2-6"
         inkscape:connector-curvature="0" />
      <path
         d="m 60.826948,939.14597 c -2.303821,0 -4.171907,1.79846 -4.171907,4.01732 0,2.21844 1.868086,4.01731 4.171907,4.01731 2.304359,0 4.172443,-1.79887 4.172443,-4.01731 0,-2.21886 -1.868084,-4.01732 -4.172443,-4.01732"
         style="fill:#393536;fill-opacity:1;fill-rule:nonzero;stroke:#b3b3b3;stroke-width:0.04095556"
         id="path4224-2-0-2"
         inkscape:connector-curvature="0" />
      <path
         d="m 89.435185,943.16329 c 0,-2.21886 -1.867627,-4.01732 -4.171978,-4.01732 -2.303826,0 -4.171978,1.79846 -4.171978,4.01732 0,2.21844 1.868152,4.01731 4.171978,4.01731 2.304351,0 4.171978,-1.79887 4.171978,-4.01731"
         style="fill:#393536;fill-opacity:1;fill-rule:nonzero;stroke:#b3b3b3;stroke-width:0.04095556"
         id="path4226-6-2-9"
         inkscape:connector-curvature="0" />
      <path
         d="m 49.65208,962.53253 c 2.222025,0 4.022961,-1.73417 4.022961,-3.87385 0,-2.13928 -1.800936,-3.87385 -4.022961,-3.87385 -2.221624,0 -4.02296,1.73457 -4.02296,3.87385 0,2.13968 1.801336,3.87385 4.02296,3.87385"
         style="fill:#393536;fill-opacity:1;fill-rule:nonzero;stroke:#b3b3b3;stroke-width:0.04095556"
         id="path4262-5-3-1"
         inkscape:connector-curvature="0" />
      <path
         d="m 95.494565,958.65868 c 0,2.13968 1.801273,3.87385 4.023359,3.87385 2.221626,0 4.022906,-1.73417 4.022906,-3.87385 0,-2.13928 -1.80128,-3.87385 -4.022906,-3.87385 -2.222086,0 -4.023359,1.73457 -4.023359,3.87385"
         style="fill:#393536;fill-opacity:1;fill-rule:nonzero;stroke:#b3b3b3;stroke-width:0.04095556"
         id="path4264-6-7-2"
         inkscape:connector-curvature="0" />
    </g>
  </g>
</svg>
